<?xml version="1.0" standalone="no"?>
<!DOCTYPE svg PUBLIC "-//W3C//DTD SVG 20010904//EN"
 "http://www.w3.org/TR/2001/REC-SVG-20010904/DTD/svg10.dtd">
<svg version="1.0" xmlns="http://www.w3.org/2000/svg"
 width="1080.000000pt" height="1080.000000pt" viewBox="0 0 1080.000000 1080.000000"
 preserveAspectRatio="xMidYMid meet">

<g transform="translate(0.000000,1080.000000) scale(0.100000,-0.100000)"
fill="#000000" stroke="none">
<path d="M4018 8069 c-10 -5 -36 -46 -59 -90 -68 -130 -145 -185 -311 -220
-108 -23 -316 -28 -418 -10 -106 19 -236 59 -332 103 -156 70 -263 74 -394 14
-103 -48 -210 -175 -230 -276 -6 -26 -11 -30 -41 -30 -47 0 -175 -27 -237 -51
-137 -51 -288 -167 -371 -283 -98 -140 -143 -270 -152 -442 -7 -146 11 -233
93 -444 35 -91 97 -252 138 -359 l74 -193 -39 -35 c-54 -49 -91 -129 -96 -211
-8 -119 15 -193 137 -440 l111 -224 -35 -106 c-78 -237 -116 -423 -125 -616
l-6 -139 -65 -23 c-36 -12 -168 -59 -295 -104 -126 -45 -293 -103 -370 -130
-184 -64 -262 -108 -355 -200 -87 -86 -139 -171 -177 -285 -25 -75 -27 -94
-31 -318 l-4 -238 88 3 89 3 5 230 c5 204 8 237 27 288 30 80 73 145 137 205
83 78 107 89 641 275 149 52 280 98 293 101 l22 7 0 -200 0 -200 -31 -78 c-17
-43 -53 -136 -79 -208 -26 -71 -69 -186 -95 -254 -25 -68 -44 -129 -42 -135 3
-6 38 -23 80 -38 l74 -26 132 351 132 352 -1 385 c0 217 5 424 11 475 12 104
95 437 134 540 60 157 194 384 250 421 48 31 125 -13 125 -73 0 -32 -14 -56
-73 -128 -71 -84 -119 -192 -158 -348 -28 -117 -31 -138 -20 -164 15 -38 48
-53 110 -53 63 0 106 -15 160 -56 27 -21 56 -34 73 -34 39 0 78 -40 78 -80 0
-33 21 -58 92 -112 20 -15 46 -48 58 -74 51 -105 1 -363 -100 -518 -26 -39
-104 -138 -173 -219 -186 -217 -217 -289 -217 -509 l0 -128 84 0 84 0 4 133
c6 189 9 196 236 460 106 123 151 190 189 279 14 35 31 68 37 74 6 6 46 16 89
22 168 25 372 99 511 186 l74 46 129 -46 c70 -25 184 -65 253 -89 711 -246
746 -261 839 -360 63 -68 86 -105 117 -190 15 -41 19 -91 24 -280 l5 -230 89
-3 88 -3 -4 238 c-4 223 -6 243 -30 316 -55 165 -182 323 -323 400 -58 32
-628 240 -1037 379 -65 22 -118 43 -118 48 0 4 30 5 68 2 184 -13 348 81 422
241 21 45 43 133 79 322 63 329 71 394 71 585 0 170 -15 304 -53 480 -16 73
-29 180 -36 294 -6 100 -25 265 -43 371 l-32 192 36 44 c187 231 300 551 302
854 0 125 -3 148 -26 217 -36 109 -90 200 -162 273 -94 96 -150 122 -198 94z
m158 -331 c70 -137 71 -345 4 -588 -36 -127 -135 -314 -228 -429 l-19 -23
-294 5 c-403 7 -563 29 -889 124 -132 38 -165 44 -221 40 -160 -10 -285 -123
-318 -287 -27 -135 -43 -324 -48 -568 l-6 -263 -21 16 c-35 26 -104 56 -148
63 l-41 7 -64 165 c-251 651 -262 690 -229 856 59 305 301 512 620 531 123 8
134 16 159 123 32 135 112 209 237 218 49 4 72 -3 197 -52 235 -94 399 -124
613 -113 283 15 457 86 570 232 l44 57 29 -33 c16 -19 39 -55 53 -81z m-1539
-1062 c349 -109 678 -156 1079 -156 182 0 184 0 189 -22 26 -118 65 -458 65
-576 0 -55 8 -116 25 -180 56 -224 76 -459 56 -667 -17 -178 -106 -607 -139
-675 -40 -80 -99 -114 -204 -119 -179 -8 -430 36 -622 108 -60 23 -113 38
-116 34 -16 -19 -61 -135 -57 -146 5 -14 116 -58 227 -90 71 -21 82 -27 106
-63 14 -21 44 -58 66 -80 l40 -41 -34 -21 c-55 -34 -158 -72 -263 -98 -55 -13
-105 -24 -112 -24 -9 0 -10 24 -6 88 9 143 -30 248 -128 343 -26 26 -55 64
-64 85 -21 52 -87 118 -139 139 -22 10 -76 35 -119 56 -43 22 -87 39 -97 39
-30 0 -32 16 -14 82 24 88 66 168 119 228 61 69 87 123 93 196 6 84 -18 155
-73 209 -41 41 -114 75 -162 75 l-23 0 0 298 c1 324 11 539 35 726 24 185 48
231 132 261 51 19 50 19 140 -9z m-622 -1040 c14 -9 52 -71 91 -149 l67 -133
-49 -61 c-28 -34 -68 -94 -89 -132 -22 -39 -44 -71 -48 -71 -13 0 -145 279
-156 332 -6 27 -11 73 -11 103 0 43 5 59 27 85 14 18 36 36 47 41 28 12 91 4
121 -15z"/>
<path d="M2892 5303 c-8 -3 -58 -73 -113 -155 -110 -166 -117 -189 -71 -236
15 -16 105 -75 200 -131 94 -57 172 -105 172 -107 0 -3 -14 -32 -31 -65 -22
-45 -29 -68 -24 -90 8 -34 48 -69 81 -69 14 0 144 20 291 45 192 32 272 50
286 63 44 40 43 49 -55 344 -51 154 -101 288 -111 299 -25 27 -66 35 -96 18
-14 -8 -39 -38 -54 -67 -16 -29 -32 -52 -37 -52 -5 0 -88 47 -184 105 -173
103 -207 117 -254 98z m269 -312 c102 -61 197 -111 210 -111 14 0 34 7 46 15
12 8 24 12 26 8 10 -18 69 -205 65 -208 -3 -3 -154 -30 -208 -37 -23 -3 -24
-1 -21 42 3 59 -1 62 -214 190 -93 57 -171 103 -172 104 -4 3 71 115 76 112 3
-2 90 -53 192 -115z"/>
<path d="M5505 5955 c-329 -72 -565 -357 -606 -732 -44 -403 174 -695 556
-745 95 -12 248 0 360 28 77 19 85 31 85 125 0 69 5 67 -112 39 -304 -73 -563
4 -665 197 -49 91 -66 164 -66 283 0 126 18 204 73 315 126 255 366 379 618
320 116 -28 189 -78 253 -178 64 -99 85 -253 55 -398 -30 -141 -100 -217 -216
-235 l-42 -7 6 44 c15 104 66 584 66 615 l0 35 -87 -3 -88 -3 -5 -53 -5 -52
-28 44 c-64 102 -220 100 -296 -4 -40 -55 -66 -127 -92 -252 -17 -84 -20 -131
-17 -253 3 -141 5 -154 31 -207 43 -88 122 -124 216 -98 49 13 118 72 147 125
10 19 22 35 26 35 4 0 8 -35 10 -77 l3 -78 71 1 c174 3 338 104 413 252 47 93
64 178 64 322 1 111 -2 134 -27 205 -37 107 -84 181 -159 251 -137 128 -347
182 -542 139z m127 -505 c31 -60 21 -262 -22 -419 -31 -115 -138 -122 -170
-10 -28 97 10 369 61 441 35 48 101 42 131 -12z"/>
<path d="M8292 5901 c-67 -23 -123 -77 -156 -150 -59 -132 -123 -638 -97 -776
22 -118 92 -189 199 -202 49 -5 208 12 230 26 14 8 36 151 25 162 -5 4 -49 2
-99 -3 -111 -14 -139 -7 -160 34 -19 37 -16 168 11 401 37 326 61 362 234 356
l86 -4 11 75 c6 47 7 80 1 88 -16 20 -220 15 -285 -7z"/>
<path d="M9003 5913 l-62 -4 -20 -67 c-96 -322 -301 -1038 -301 -1049 0 -11
18 -13 88 -11 l87 3 29 115 c16 63 34 118 40 122 6 4 43 8 82 8 l71 0 7 -77
c3 -42 6 -98 6 -125 l0 -48 90 0 c64 0 92 4 95 13 6 17 -80 1101 -89 1115 -4
7 -19 11 -34 10 -15 -1 -55 -3 -89 -5z m6 -650 l1 -83 -55 0 c-43 0 -55 3 -55
15 0 9 21 100 48 203 l47 187 6 -120 c4 -66 7 -157 8 -202z"/>
<path d="M9733 5913 l-62 -4 -20 -67 c-96 -322 -301 -1038 -301 -1049 0 -11
18 -13 88 -11 l87 3 29 115 c16 63 34 118 40 122 6 4 43 8 82 8 l71 0 7 -77
c3 -42 6 -98 6 -125 l0 -48 90 0 c64 0 92 4 95 13 6 17 -80 1101 -89 1115 -4
7 -19 11 -34 10 -15 -1 -55 -3 -89 -5z m6 -650 l1 -83 -55 0 c-43 0 -55 3 -55
15 0 9 21 100 48 203 l47 187 6 -120 c4 -66 7 -157 8 -202z"/>
<path d="M6790 5654 c-19 -8 -50 -31 -68 -52 l-33 -37 7 48 6 47 -85 0 c-49 0
-89 -4 -92 -11 -9 -13 -145 -1212 -139 -1218 9 -9 169 0 175 10 3 5 13 105 24
222 10 116 21 216 25 220 4 4 13 -6 20 -23 38 -92 176 -118 264 -49 89 70 156
299 156 529 0 178 -37 272 -124 311 -49 22 -89 23 -136 3z m21 -164 c53 -29
69 -134 45 -298 -23 -154 -48 -220 -92 -238 -45 -19 -81 -4 -99 41 -28 66 -13
315 26 432 19 58 74 87 120 63z"/>
<path d="M7584 5656 c-16 -7 -46 -32 -66 -55 l-35 -41 5 50 5 50 -87 0 c-81 0
-86 -1 -91 -22 -10 -42 -136 -1173 -133 -1193 3 -18 9 -20 83 -17 44 2 83 7
87 10 6 6 47 387 48 450 1 10 8 3 20 -18 42 -79 99 -108 187 -95 41 6 56 15
99 59 56 58 92 141 118 276 49 253 19 464 -74 526 -46 30 -123 40 -166 20z
m25 -166 c50 -26 65 -175 36 -346 -26 -149 -75 -219 -139 -195 -43 17 -60 55
-64 150 -4 97 25 285 52 343 24 50 73 71 115 48z"/>
</g>
</svg>
