<?xml version="1.0" standalone="no"?>
<!DOCTYPE svg PUBLIC "-//W3C//DTD SVG 20010904//EN"
 "http://www.w3.org/TR/2001/REC-SVG-20010904/DTD/svg10.dtd">
<svg version="1.0" xmlns="http://www.w3.org/2000/svg"
 width="900.000000pt" height="900.000000pt" viewBox="0 0 900.000000 900.000000"
 preserveAspectRatio="xMidYMid meet">
<metadata>
Created by potrace 1.10, written by Peter Selinger 2001-2011
</metadata>
<g transform="translate(0.000000,900.000000) scale(0.100000,-0.100000)"
fill="#000000" stroke="none">
<path d="M1630 6331 c-99 -36 -175 -107 -216 -201 -18 -43 -19 -80 -19 -1350
l0 -1305 25 -50 c31 -64 112 -146 175 -176 l50 -24 680 0 680 0 64 35 c75 40
138 114 170 197 21 54 21 62 21 1322 0 1193 -1 1270 -18 1316 -44 122 -110
192 -222 234 -54 21 -69 21 -700 20 -572 -2 -650 -4 -690 -18z m1401 -126 c24
-17 58 -50 77 -74 62 -82 127 -76 -783 -79 -462 -1 -813 2 -818 7 -10 10 4 37
46 93 29 38 70 64 122 78 17 5 319 8 672 7 l641 -2 43 -30z m107 -267 c17 -17
17 -2059 0 -2076 -17 -17 -1619 -17 -1636 0 -9 9 -12 252 -12 1034 0 562 3
1029 6 1038 6 14 87 16 818 16 618 0 815 -3 824 -12z m7 -2328 c-1 -117 -2
-128 -27 -165 -32 -51 -80 -88 -141 -109 -42 -14 -123 -16 -655 -16 -691 0
-670 -2 -752 80 -60 60 -80 119 -80 236 0 50 3 94 7 97 3 4 376 6 827 5 l821
-3 0 -125z"/>
<path d="M2246 3661 c-45 -30 -66 -70 -66 -125 0 -110 112 -178 209 -128 47
23 72 61 78 114 6 54 -13 96 -60 132 -42 33 -117 36 -161 7z m98 -94 c11 -8
17 -23 14 -38 -2 -19 -9 -24 -32 -24 -40 0 -56 27 -32 54 22 25 26 25 50 8z"/>
<path d="M3930 5430 c-113 -26 -180 -56 -265 -119 -129 -95 -212 -219 -271
-406 -27 -86 -28 -357 0 -430 70 -190 171 -291 361 -361 73 -27 364 -27 445 0
77 26 80 30 80 102 l0 64 -32 0 c-18 0 -55 -7 -83 -16 -78 -23 -307 -21 -371
5 -117 46 -187 109 -236 211 -31 64 -32 68 -32 215 -1 155 5 185 53 285 75
156 222 272 379 300 73 13 189 -1 258 -31 55 -25 127 -90 156 -142 47 -81 61
-149 55 -261 -8 -146 -44 -228 -119 -274 -40 -24 -104 -37 -113 -22 -3 5 1 61
9 123 29 220 39 303 43 395 l5 92 -69 0 c-71 0 -93 -10 -93 -42 0 -24 -16 -23
-43 5 -49 50 -123 61 -193 26 -78 -37 -125 -139 -158 -340 -31 -186 -12 -327
53 -400 32 -36 43 -41 92 -46 33 -3 71 0 93 7 40 13 93 61 107 97 13 36 26 20
34 -42 7 -61 2 -58 100 -56 28 1 68 9 90 17 171 68 244 143 295 305 27 87 28
299 2 374 -74 209 -211 329 -420 369 -100 19 -116 19 -212 -4z m74 -430 c38
-14 50 -72 42 -205 -7 -115 -29 -215 -55 -252 -24 -33 -83 -31 -110 3 -18 23
-21 41 -21 136 0 158 38 299 85 318 27 12 30 12 59 0z"/>
<path d="M6415 5391 c-59 -10 -125 -50 -155 -95 -62 -91 -111 -347 -117 -617
-4 -147 -3 -159 19 -204 13 -26 40 -62 61 -79 38 -31 41 -31 150 -31 146 0
163 5 177 53 7 20 10 53 8 72 l-3 35 -95 -3 c-84 -3 -99 -1 -120 16 -25 20
-25 21 -22 168 2 81 10 184 17 228 8 45 15 98 15 118 0 51 35 138 67 166 24
21 34 23 110 21 99 -4 100 -3 105 86 3 55 2 59 -22 66 -31 9 -141 9 -195 0z"/>
<path d="M6942 5382 c-11 -8 -27 -55 -52 -152 -8 -33 -30 -108 -66 -225 -8
-27 -19 -66 -24 -85 -8 -33 -30 -108 -66 -225 -8 -27 -19 -66 -24 -85 -5 -19
-19 -66 -31 -105 -11 -38 -22 -86 -23 -105 l-1 -35 69 2 c41 2 75 8 83 16 7 7
17 35 22 62 6 28 16 68 24 90 14 40 14 40 78 46 35 4 67 5 72 2 4 -2 7 -49 7
-103 0 -120 3 -124 111 -114 l71 7 -5 81 c-3 45 -10 140 -16 211 -22 253 -41
491 -46 595 -4 57 -11 110 -17 117 -12 15 -144 18 -166 5z m51 -524 l2 -123
-39 -3 c-62 -5 -62 -5 -20 144 8 28 14 61 14 73 0 12 5 32 11 43 20 37 29 -2
32 -134z"/>
<path d="M7566 5358 c-14 -35 -22 -59 -91 -303 -10 -33 -23 -80 -30 -105 -8
-25 -21 -72 -31 -105 -9 -33 -22 -78 -29 -100 -6 -22 -20 -67 -29 -100 -10
-33 -22 -73 -28 -90 -5 -16 -14 -48 -18 -71 -5 -22 -14 -52 -21 -66 -23 -51
-8 -61 74 -53 39 3 77 11 83 16 6 5 14 28 17 52 4 23 13 65 20 92 l14 50 64 6
c35 4 67 5 71 3 3 -2 10 -49 14 -104 8 -119 11 -122 109 -113 l67 6 -5 116
c-4 113 -12 209 -43 551 -8 91 -14 195 -14 232 0 37 -4 78 -10 92 -9 25 -13
26 -90 26 l-80 0 -14 -32z m69 -616 c-3 -9 -19 -12 -47 -10 l-43 3 3 44 c2 24
8 56 14 70 5 14 13 47 18 73 5 27 17 60 27 75 18 27 18 26 26 -107 4 -74 5
-141 2 -148z"/>
<path d="M5060 5157 c-14 -6 -37 -24 -51 -40 -17 -17 -30 -24 -34 -18 -3 6 -4
15 -1 20 4 5 3 16 0 25 -5 12 -21 16 -74 16 -40 0 -72 -5 -76 -11 -10 -17 -34
-158 -34 -204 0 -22 -6 -89 -14 -150 -8 -60 -22 -171 -30 -245 -8 -74 -21
-175 -27 -225 -7 -49 -14 -134 -16 -187 l-5 -98 71 0 c57 0 72 3 80 18 9 17
23 125 39 302 l7 85 37 -37 c64 -63 174 -65 236 -5 75 72 132 273 132 467 0
117 -16 182 -57 238 -41 54 -123 77 -183 49z m30 -165 c31 -25 42 -104 30
-227 -10 -106 -28 -177 -55 -219 -22 -33 -69 -35 -102 -4 -22 20 -23 29 -23
147 0 246 63 373 150 303z"/>
<path d="M5734 5144 c-21 -15 -40 -30 -42 -35 -7 -19 -21 -8 -24 19 -3 27 -4
27 -78 27 l-75 0 -17 -115 c-20 -135 -37 -279 -48 -405 -4 -49 -12 -124 -18
-165 -23 -157 -36 -288 -37 -355 l0 -70 70 0 c65 0 71 2 82 26 7 15 18 93 23
175 14 204 17 210 69 152 28 -32 33 -33 103 -33 85 0 110 14 155 84 32 51 51
99 63 161 5 25 14 61 19 80 18 58 14 297 -6 350 -42 116 -151 163 -239 104z
m46 -144 c32 -17 43 -83 36 -207 -7 -117 -33 -222 -63 -255 -25 -28 -77 -23
-102 8 -18 23 -21 41 -21 138 0 67 6 135 15 169 8 32 15 67 15 78 0 27 53 79
80 79 12 0 30 -5 40 -10z"/>
</g>
</svg>
